<?xml version="1.0" encoding="UTF-8" standalone="no"?>
<!DOCTYPE svg PUBLIC "-//W3C//DTD SVG 1.1//EN" "http://www.w3.org/Graphics/SVG/1.1/DTD/svg11.dtd">
<svg width="100%" height="100%" viewBox="0 0 800 600" version="1.1" xmlns="http://www.w3.org/2000/svg" xmlns:xlink="http://www.w3.org/1999/xlink" xml:space="preserve" xmlns:serif="http://www.serif.com/" style="fill-rule:evenodd;clip-rule:evenodd;stroke-linejoin:round;stroke-miterlimit:2;">
    <g transform="matrix(0.9515,0,0,0.9515,-136.245,18.6358)">
        <path id="letter_g" d="M253.586,295.704L253.586,273.779L332.745,273.652L332.745,342.996C320.593,352.684 308.058,359.971 295.141,364.857C282.224,369.744 268.967,372.187 255.37,372.187C237.014,372.187 220.337,368.256 205.338,360.396C190.339,352.535 179.015,341.169 171.367,326.297C163.718,311.426 159.894,294.812 159.894,276.456C159.894,258.27 163.697,241.295 171.303,225.531C178.909,209.767 189.85,198.061 204.127,190.413C218.404,182.765 234.847,178.941 253.458,178.941C266.97,178.941 279.186,181.129 290.106,185.505C301.026,189.882 309.588,195.979 315.791,203.798C321.995,211.616 326.711,221.813 329.941,234.391L307.633,240.509C304.829,230.991 301.345,223.513 297.181,218.074C293.017,212.636 287.068,208.28 279.335,205.009C271.601,201.737 263.018,200.101 253.586,200.101C242.283,200.101 232.51,201.822 224.267,205.263C216.024,208.705 209.374,213.23 204.318,218.839C199.262,224.448 195.331,230.609 192.527,237.322C187.768,248.88 185.389,261.414 185.389,274.926C185.389,291.583 188.257,305.519 193.993,316.737C199.729,327.954 208.078,336.282 219.041,341.721C230.003,347.16 241.646,349.879 253.968,349.879C264.676,349.879 275.128,347.819 285.326,343.697C295.524,339.575 303.257,335.178 308.526,330.504L308.526,295.704L253.586,295.704Z" style="fill-rule:nonzero;"/>
        <path id="letter_a" d="M454.607,352.301C446.109,359.525 437.93,364.623 430.069,367.598C422.208,370.572 413.774,372.059 404.766,372.059C389.895,372.059 378.465,368.426 370.476,361.161C362.488,353.895 358.494,344.611 358.494,333.308C358.494,326.68 360.003,320.625 363.019,315.143C366.036,309.662 369.988,305.264 374.874,301.95C379.761,298.636 385.263,296.129 391.382,294.429C395.886,293.24 402.684,292.092 411.777,290.988C430.303,288.778 443.942,286.144 452.695,283.085C452.78,279.94 452.823,277.943 452.823,277.093C452.823,267.746 450.656,261.16 446.322,257.335C440.458,252.152 431.748,249.56 420.19,249.56C409.398,249.56 401.431,251.45 396.289,255.232C391.148,259.014 387.345,265.706 384.881,275.309L362.446,272.249C364.485,262.647 367.842,254.892 372.516,248.986C377.19,243.08 383.946,238.533 392.784,235.347C401.622,232.16 411.862,230.566 423.504,230.566C435.062,230.566 444.452,231.926 451.676,234.646C458.899,237.365 464.21,240.785 467.609,244.907C471.009,249.029 473.388,254.234 474.748,260.522C475.513,264.431 475.895,271.485 475.895,281.682L475.895,312.275C475.895,333.606 476.384,347.096 477.361,352.747C478.338,358.399 480.272,363.816 483.161,369L459.196,369C456.817,364.241 455.287,358.675 454.607,352.301ZM452.695,301.058C444.367,304.457 431.875,307.347 415.219,309.726C405.786,311.086 399.115,312.615 395.206,314.315C391.297,316.015 388.28,318.5 386.155,321.772C384.031,325.044 382.969,328.677 382.969,332.671C382.969,338.789 385.284,343.888 389.916,347.967C394.547,352.046 401.324,354.086 410.247,354.086C419.085,354.086 426.946,352.153 433.83,348.286C440.713,344.419 445.769,339.129 448.999,332.416C451.463,327.232 452.695,319.584 452.695,309.471L452.695,301.058Z" style="fill-rule:nonzero;"/>
        <path id="letter_b" d="M532.62,369L511.332,369L511.332,182.127L534.277,182.127L534.277,248.795C543.965,236.643 556.329,230.566 571.371,230.566C579.699,230.566 587.581,232.245 595.017,235.602C602.453,238.958 608.571,243.675 613.373,249.751C618.174,255.827 621.934,263.157 624.654,271.74C627.373,280.323 628.733,289.501 628.733,299.273C628.733,322.473 622.997,340.404 611.524,353.066C600.052,365.728 586.285,372.059 570.224,372.059C554.247,372.059 541.713,365.388 532.62,352.046L532.62,369ZM532.365,300.293C532.365,316.524 534.574,328.252 538.993,335.475C546.217,347.287 555.989,353.194 568.312,353.194C578.339,353.194 587.007,348.838 594.316,340.128C601.624,331.417 605.278,318.436 605.278,301.185C605.278,283.509 601.773,270.465 594.762,262.052C587.751,253.639 579.274,249.432 569.331,249.432C559.304,249.432 550.636,253.787 543.327,262.498C536.019,271.208 532.365,283.807 532.365,300.293Z" style="fill-rule:nonzero;"/>
        <path id="letter_r" d="M656.394,369L656.394,233.626L677.044,233.626L677.044,254.149C682.313,244.546 687.178,238.215 691.64,235.155C696.101,232.096 701.009,230.566 706.363,230.566C714.096,230.566 721.957,233.031 729.945,237.96L722.042,259.247C716.433,255.933 710.824,254.276 705.215,254.276C700.202,254.276 695.698,255.784 691.703,258.801C687.709,261.818 684.863,266.003 683.163,271.357C680.613,279.515 679.339,288.438 679.339,298.126L679.339,369L656.394,369Z" style="fill-rule:nonzero;"/>
        <path id="letter_i" d="M743.712,208.514L743.712,182.127L766.656,182.127L766.656,208.514L743.712,208.514ZM743.712,369L743.712,233.626L766.656,233.626L766.656,369L743.712,369Z" style="fill-rule:nonzero;"/>
        <path id="letter_e" d="M894.255,325.405L917.965,328.337C914.225,342.189 907.299,352.939 897.187,360.587C887.074,368.235 874.157,372.059 858.436,372.059C838.635,372.059 822.935,365.962 811.335,353.767C799.735,341.572 793.935,324.47 793.935,302.46C793.935,279.685 799.799,262.009 811.526,249.432C823.254,236.855 838.465,230.566 857.161,230.566C875.262,230.566 890.048,236.728 901.521,249.05C912.993,261.372 918.729,278.708 918.729,301.058C918.729,302.418 918.687,304.457 918.602,307.177L817.645,307.177C818.495,322.048 822.701,333.436 830.264,341.339C837.828,349.242 847.261,353.194 858.563,353.194C866.976,353.194 874.157,350.984 880.106,346.565C886.054,342.146 890.771,335.093 894.255,325.405ZM818.92,288.311L894.51,288.311C893.49,276.923 890.601,268.383 885.842,262.689C878.534,253.851 869.058,249.432 857.416,249.432C846.878,249.432 838.019,252.959 830.838,260.012C823.657,267.066 819.684,276.499 818.92,288.311Z" style="fill-rule:nonzero;"/>
        <rect id="letter_l" x="946.263" y="182.127" width="22.945" height="186.873" style="fill-rule:nonzero;"/>
    </g>
</svg>
